<svg width="24" height="24" viewBox="0 0 24 24" fill="none" xmlns="http://www.w3.org/2000/svg">
<g clip-path="url(#clip0_34_10082)">
<path d="M11.9337 11.5333C13.7337 11.5333 15.1337 10.0667 15.1337 8.26667C15.1337 6.46667 13.667 5.06667 11.867 5.06667C10.067 5.06667 8.66699 6.53333 8.66699 8.26667C8.66699 10.0667 10.1337 11.5333 11.9337 11.5333ZM11.867 6.4C11.9337 6.4 11.9337 6.4 11.867 6.4C12.9337 6.4 13.8003 7.26667 13.8003 8.33333C13.8003 9.4 12.9337 10.2 11.867 10.2C10.8003 10.2 10.0003 9.33333 10.0003 8.33333C10.0003 7.26667 10.867 6.4 11.867 6.4Z" fill="white"/>
<path d="M21.8 11.1333C20.5333 10 18.8667 9.4 17.1333 9.46667H16.6C16.4667 10 16.2667 10.4667 16 10.8667C16.4 10.8 16.7333 10.8 17.1333 10.8C18.4 10.7333 19.6667 11.1333 20.6667 11.8667V16.6667H22V11.3333L21.8 11.1333Z" fill="white"/>
<path d="M15.6003 5.2C15.9337 4.4 16.867 4 17.7337 4.33334C18.5337 4.66667 18.9337 5.6 18.6003 6.46667C18.3337 7.06667 17.7337 7.46667 17.1337 7.46667C17.0003 7.46667 16.8003 7.46667 16.667 7.4C16.7337 7.73334 16.7337 8.06667 16.7337 8.33334V8.73334C16.867 8.73334 17.0003 8.8 17.1337 8.8C18.8003 8.8 20.1337 7.46667 20.1337 5.86667C20.1337 4.2 18.8003 2.86667 17.2003 2.86667C16.1337 2.86667 15.2003 3.4 14.667 4.33334C15.0003 4.53334 15.3337 4.8 15.6003 5.2Z" fill="white"/>
<path d="M8 10.9333C7.73333 10.5333 7.53333 10.0667 7.4 9.53333H6.86667C5.13333 9.46666 3.46667 10.0667 2.2 11.1333L2 11.3333V16.6667H3.33333V11.8667C4.4 11.1333 5.6 10.7333 6.86667 10.8C7.26667 10.8 7.66667 10.8667 8 10.9333Z" fill="white"/>
<path d="M6.86619 8.73333C6.99952 8.73333 7.13285 8.73333 7.26619 8.66666V8.26666C7.26619 7.93333 7.26619 7.59999 7.33285 7.33333C7.19952 7.39999 6.99952 7.39999 6.86619 7.39999C5.99952 7.39999 5.26619 6.66666 5.26619 5.79999C5.26619 4.93333 5.99952 4.19999 6.86619 4.19999C7.53285 4.19999 8.13285 4.59999 8.39952 5.19999C8.66619 4.86666 9.06619 4.53333 9.39952 4.26666C8.53285 2.86666 6.73285 2.39999 5.33285 3.26666C3.93285 4.13333 3.46619 5.93333 4.33285 7.33333C4.86619 8.19999 5.79952 8.73333 6.86619 8.73333Z" fill="white"/>
<path d="M17.4003 15.1333L17.267 14.9333C15.9337 13.4667 14.067 12.6 12.067 12.6667C10.067 12.6 8.13366 13.4667 6.80033 14.9333L6.66699 15.1333V20.2C6.66699 20.8 7.13366 21.3333 7.80033 21.3333H16.3337C16.9337 21.3333 17.467 20.8 17.467 20.2V15.1333H17.4003ZM16.067 20H8.00033V15.6C9.06699 14.5333 10.5337 14 12.067 14C13.5337 13.9333 15.0003 14.5333 16.067 15.6V20Z" fill="white"/>
</g>
<defs>
<clipPath id="clip0_34_10082">
<rect width="24" height="24" fill="white"/>
</clipPath>
</defs>
</svg>
