<svg width="24" height="24" viewBox="0 0 24 24" fill="none" xmlns="http://www.w3.org/2000/svg">
<rect x="0.5" y="0.5" width="23" height="23" rx="5.5" fill="#FAF9F6"/>
<rect x="0.5" y="0.5" width="23" height="23" rx="5.5" stroke="#F0F2F5"/>
<path fill-rule="evenodd" clip-rule="evenodd" d="M14.333 5.33333C13.4125 5.33333 12.6663 6.07952 12.6663 6.99999V17C12.6663 17.9205 13.4125 18.6667 14.333 18.6667H16.9997C17.9201 18.6667 18.6663 17.9205 18.6663 17V6.99999C18.6663 6.07952 17.9201 5.33333 16.9997 5.33333H14.333ZM13.9997 6.99999C13.9997 6.8159 14.1489 6.66666 14.333 6.66666H16.9997C17.1838 6.66666 17.333 6.8159 17.333 6.99999V17C17.333 17.1841 17.1838 17.3333 16.9997 17.3333H14.333C14.1489 17.3333 13.9997 17.1841 13.9997 17V6.99999Z" fill="#F77A4A"/>
<path fill-rule="evenodd" clip-rule="evenodd" d="M6.99967 11.3333C6.0792 11.3333 5.33301 12.0795 5.33301 13V17C5.33301 17.9205 6.0792 18.6667 6.99967 18.6667H9.66634C10.5868 18.6667 11.333 17.9205 11.333 17V13C11.333 12.0795 10.5868 11.3333 9.66634 11.3333H6.99967ZM6.66634 13C6.66634 12.8159 6.81558 12.6667 6.99967 12.6667H9.66634C9.85044 12.6667 9.99967 12.8159 9.99967 13V17C9.99967 17.1841 9.85044 17.3333 9.66634 17.3333H6.99967C6.81558 17.3333 6.66634 17.1841 6.66634 17V13Z" fill="#F77A4A"/>
</svg>
