<svg width="18" height="18" viewBox="0 0 18 18" fill="none" xmlns="http://www.w3.org/2000/svg">
<path d="M9.00042 3.53571C8.00935 3.53571 7.09528 3.78013 6.25823 4.26897C5.42118 4.75781 4.75823 5.42076 4.26939 6.25781C3.78055 7.09486 3.53613 8.00893 3.53613 9C3.53613 9.99107 3.78055 10.9051 4.26939 11.7422C4.75823 12.5792 5.42118 13.2422 6.25823 13.731C7.09528 14.2199 8.00935 14.4643 9.00042 14.4643C9.99149 14.4643 10.9056 14.2199 11.7426 13.731C12.5797 13.2422 13.2426 12.5792 13.7314 11.7422C14.2203 10.9051 14.4647 9.99107 14.4647 9C14.4647 8.00893 14.2203 7.09486 13.7314 6.25781C13.2426 5.42076 12.5797 4.75781 11.7426 4.26897C10.9056 3.78013 9.99149 3.53571 9.00042 3.53571ZM16.7147 9C16.7147 10.3996 16.3698 11.6903 15.6801 12.8722C14.9904 14.0541 14.0545 14.99 12.8726 15.6797C11.6907 16.3694 10.4 16.7143 9.00042 16.7143C7.60086 16.7143 6.31013 16.3694 5.12821 15.6797C3.94629 14.99 3.01046 14.0541 2.32073 12.8722C1.631 11.6903 1.28613 10.3996 1.28613 9C1.28613 7.60045 1.631 6.30971 2.32073 5.12779C3.01046 3.94587 3.94629 3.01004 5.12821 2.32031C6.31013 1.63058 7.60086 1.28571 9.00042 1.28571C10.4 1.28571 11.6907 1.63058 12.8726 2.32031C14.0545 3.01004 14.9904 3.94587 15.6801 5.12779C16.3698 6.30971 16.7147 7.60045 16.7147 9Z" fill="white"/>
</svg>
