<svg width="22" height="28" viewBox="0 0 22 28" fill="none" xmlns="http://www.w3.org/2000/svg">
<path d="M9.59967 21.9993L17.133 14.466L15.1997 12.5327L9.56634 18.166L6.76634 15.366L4.86634 17.266L9.59967 21.9993ZM2.99967 27.3327C2.26634 27.3327 1.63879 27.0718 1.11701 26.55C0.59523 26.0282 0.333897 25.4002 0.333008 24.666V3.33268C0.333008 2.59935 0.594341 1.97179 1.11701 1.45002C1.63967 0.928238 2.26723 0.666905 2.99967 0.666016H13.6663L21.6663 8.66602V24.666C21.6663 25.3993 21.4055 26.0273 20.8837 26.55C20.3619 27.0727 19.7339 27.3336 18.9997 27.3327H2.99967ZM12.333 9.99935V3.33268H2.99967V24.666H18.9997V9.99935H12.333Z" fill="black"/>
</svg>
